<svg xmlns:dc="http://purl.org/dc/elements/1.1/" xmlns:cc="http://creativecommons.org/ns#" xmlns:rdf="http://www.w3.org/1999/02/22-rdf-syntax-ns#" xmlns:svg="http://www.w3.org/2000/svg" xmlns="http://www.w3.org/2000/svg" xmlns:sodipodi="http://sodipodi.sourceforge.net/DTD/sodipodi-0.dtd" xmlns:inkscape="http://www.inkscape.org/namespaces/inkscape" viewBox="0 0 8.4666665 10.583333625" version="1.1" x="0px" y="0px"><g transform="translate(0,-288.53332)"><path style="color:#7f7f7f;font-style:normal;font-variant:normal;font-weight:normal;font-stretch:normal;font-size:medium;line-height:normal;font-family:sans-serif;font-variant-ligatures:normal;font-variant-position:normal;font-variant-caps:normal;font-variant-numeric:normal;font-variant-alternates:normal;font-feature-settings:normal;text-indent:0;text-align:start;text-decoration:none;text-decoration-line:none;text-decoration-style:solid;text-decoration-color:#7f7f7f;letter-spacing:normal;word-spacing:normal;text-transform:none;writing-mode:lr-tb;direction:ltr;text-orientation:mixed;dominant-baseline:auto;baseline-shift:baseline;text-anchor:start;white-space:normal;shape-padding:0;clip-rule:nonzero;display:inline;overflow:visible;visibility:visible;opacity:1;isolation:auto;mix-blend-mode:normal;color-interpolation:sRGB;color-interpolation-filters:linearRGB;solid-color:#7f7f7f;solid-opacity:1;vector-effect:none;fill:#7f7f7f;fill-opacity:1;fill-rule:nonzero;stroke:none;stroke-width:0.5291667;stroke-linecap:butt;stroke-linejoin:miter;stroke-miterlimit:4;stroke-dasharray:none;stroke-dashoffset:0;stroke-opacity:1;color-rendering:auto;image-rendering:auto;shape-rendering:auto;text-rendering:auto;enable-background:accumulate" d="m 5.8792279,289.12458 c -0.08935,-10e-4 -0.175575,0.006 -0.263549,0.009 -0.03735,0.14707 -0.05943,0.3004 -0.05943,0.4594 0,1.02601 0.826071,1.85209 1.852083,1.85209 0.160314,0 0.314857,-0.0225 0.463021,-0.0605 0.01818,-0.59094 -0.04547,-1.21283 -0.20619,-1.8557 l -0.03876,-0.15399 -0.153995,-0.0388 c -0.548042,-0.13701 -1.081612,-0.20538 -1.593186,-0.21136 z m -0.812869,0.0512 c -1.192091,0.14822 -2.231171,0.64729 -3.004468,1.42059 -0.7738272,0.77382 -1.27788342,1.81184 -1.42575342,3.00498 0.1372899,-0.0247 0.2779384,-0.0398 0.42219642,-0.0398 1.311995,0 2.38125,1.06926 2.38125,2.38125 0,0.14426 -0.01503,0.28491 -0.03979,0.4222 1.193139,-0.14787 2.23116,-0.65193 3.004984,-1.42575 0.773824,-0.77383 1.277882,-1.81185 1.425752,-3.00499 -0.137289,0.0248 -0.277936,0.0398 -0.422195,0.0398 -1.311995,0 -2.38125,-1.06925 -2.38125,-2.38125 0,-0.14248 0.01511,-0.28133 0.03927,-0.41703 z m -0.381373,2.08205 1.058333,1.05833 -0.374137,0.37414 -0.342098,-0.3421 -0.419613,0.41961 0.342098,0.3421 -0.374137,0.37414 -0.342098,-0.3421 -0.419613,0.41961 0.342098,0.3421 -0.374137,0.37414 -1.058333,-1.05834 0.374137,-0.37413 0.342098,0.3421 0.419613,-0.41962 -0.342098,-0.3421 0.374137,-0.37413 0.342098,0.3421 0.419613,-0.41962 -0.342098,-0.3421 z m -3.626652,2.8329 c -0.16031422,0 -0.31485762,0.0225 -0.46302092,0.0605 -0.018177,0.59094 0.045472,1.21283 0.206189,1.8557 l 0.038757,0.154 0.1539958,0.0387 c 0.64286552,0.16072 1.26475592,0.22437 1.85569992,0.20619 0.03795,-0.14816 0.06046,-0.3027 0.06046,-0.46302 0,-1.02601 -0.826072,-1.85208 -1.8520836,-1.85208 z"/></g></svg>