<svg xmlns="http://www.w3.org/2000/svg" xmlns:xlink="http://www.w3.org/1999/xlink" xml:space="preserve" version="1.1" style="shape-rendering:geometricPrecision;text-rendering:geometricPrecision;image-rendering:optimizeQuality;" viewBox="0 0 1.249 1.5825" x="0px" y="0px" fill-rule="evenodd" clip-rule="evenodd"><defs><style type="text/css">
   
    .fil0 {fill:black}
   
  </style></defs><g><path class="fil0" style="fill:#7f7f7f;" d="M1.198 1.015l0 0zm-0.004 -0.583l0 0zm-1.105 0.014l1.071 0c0.013,0 0.025,-0.005 0.034,-0.014 0.008,-0.009 0.014,-0.021 0.014,-0.034 0,-0.119 -0.063,-0.211 -0.157,-0.276 -0.116,-0.081 -0.278,-0.122 -0.427,-0.122 -0.149,0 -0.31,0.041 -0.426,0.122 -0.094,0.065 -0.157,0.157 -0.157,0.276 0,0.013 0.006,0.025 0.014,0.034 0.009,0.009 0.021,0.014 0.034,0.014zm0.804 -0.084c-0.017,0 -0.031,-0.006 -0.031,-0.013 0,-0.007 0.014,-0.013 0.031,-0.013 0.017,0 0.031,0.006 0.031,0.013 0,0.007 -0.014,0.013 -0.031,0.013zm0.144 -0.013c0,-0.007 0.013,-0.013 0.03,-0.013 0.017,0 0.031,0.006 0.031,0.013 0,0.007 -0.014,0.013 -0.031,0.013 -0.017,0 -0.03,-0.006 -0.03,-0.013zm-0.476 -0.166c0,0.007 -0.014,0.013 -0.031,0.013 -0.017,0 -0.031,-0.006 -0.031,-0.013 0,-0.008 0.014,-0.014 0.031,-0.014 0.017,0 0.031,0.006 0.031,0.014zm0.063 -0.059c-0.016,0 -0.03,-0.006 -0.03,-0.014 0,-0.007 0.014,-0.013 0.03,-0.013 0.017,0 0.031,0.006 0.031,0.013 0,0.008 -0.014,0.014 -0.031,0.014zm0.121 -0.033c0,-0.007 0.014,-0.013 0.031,-0.013 0.017,0 0.031,0.006 0.031,0.013 0,0.008 -0.014,0.014 -0.031,0.014 -0.017,0 -0.031,-0.006 -0.031,-0.014zm-0.358 0.258c0,0.007 -0.014,0.013 -0.031,0.013 -0.017,0 -0.031,-0.006 -0.031,-0.013 0,-0.007 0.014,-0.013 0.031,-0.013 0.017,0 0.031,0.006 0.031,0.013zm0.05 -0.07c-0.017,0 -0.031,-0.006 -0.031,-0.013 0,-0.007 0.014,-0.013 0.031,-0.013 0.017,0 0.031,0.006 0.031,0.013 0,0.007 -0.014,0.013 -0.031,0.013zm0.067 -0.188c0,0.008 -0.014,0.014 -0.031,0.014 -0.017,0 -0.031,-0.006 -0.031,-0.014 0,-0.007 0.014,-0.013 0.031,-0.013 0.017,0 0.031,0.006 0.031,0.013zm-0.322 0.245c0.017,0 0.03,0.006 0.03,0.013 0,0.007 -0.013,0.013 -0.03,0.013 -0.017,0 -0.031,-0.006 -0.031,-0.013 0,-0.007 0.014,-0.013 0.031,-0.013zm0.501 0.013c0,-0.007 0.014,-0.013 0.031,-0.013 0.017,0 0.03,0.006 0.03,0.013 0,0.007 -0.013,0.013 -0.03,0.013 -0.017,0 -0.031,-0.006 -0.031,-0.013zm-0.178 0c0,-0.007 0.013,-0.013 0.03,-0.013 0.017,0 0.031,0.006 0.031,0.013 0,0.007 -0.014,0.013 -0.031,0.013 -0.017,0 -0.03,-0.006 -0.03,-0.013zm0.119 -0.083c-0.016,0 -0.03,-0.006 -0.03,-0.013 0,-0.008 0.014,-0.014 0.03,-0.014 0.017,0 0.031,0.006 0.031,0.014 0,0.007 -0.014,0.013 -0.031,0.013zm-0.25 -0.083c0,0.007 -0.014,0.013 -0.031,0.013 -0.017,0 -0.031,-0.006 -0.031,-0.013 0,-0.008 0.014,-0.014 0.031,-0.014 0.017,0 0.031,0.006 0.031,0.014zm0.314 0c0,-0.008 0.014,-0.014 0.031,-0.014 0.017,0 0.03,0.006 0.03,0.014 0,0.007 -0.013,0.013 -0.03,0.013 -0.017,0 -0.031,-0.006 -0.031,-0.013zm0.093 0.083c0,-0.007 0.014,-0.013 0.031,-0.013 0.017,0 0.031,0.006 0.031,0.013 0,0.007 -0.014,0.013 -0.031,0.013 -0.017,0 -0.031,-0.006 -0.031,-0.013zm0.19 -0.01c0,-0.007 0.014,-0.013 0.031,-0.013 0.017,0 0.031,0.006 0.031,0.013 0,0.008 -0.014,0.014 -0.031,0.014 -0.017,0 -0.031,-0.006 -0.031,-0.014zm-0.101 -0.073c0,-0.008 0.013,-0.014 0.03,-0.014 0.017,0 0.031,0.006 0.031,0.014 0,0.007 -0.014,0.013 -0.031,0.013 -0.017,0 -0.03,-0.006 -0.03,-0.013zm-0.593 0.073c0,0.008 -0.013,0.014 -0.03,0.014 -0.017,0 -0.031,-0.006 -0.031,-0.014 0,-0.007 0.014,-0.013 0.031,-0.013 0.017,0 0.03,0.006 0.03,0.013zm-0.229 0.355l1.153 0c0.013,0 0.025,-0.006 0.034,-0.014 0.009,-0.009 0.014,-0.021 0.014,-0.034 0,-0.013 -0.005,-0.026 -0.014,-0.034 -0.009,-0.009 -0.021,-0.014 -0.034,-0.014l-0.041 0 -0.536 0 -0.535 0 -0.041 0c-0.013,0 -0.025,0.005 -0.034,0.014 -0.009,0.008 -0.014,0.02 -0.014,0.034 0,0.013 0.005,0.025 0.014,0.034 0.009,0.008 0.021,0.014 0.034,0.014zm0.338 0.167c0.024,-0.024 0.048,-0.048 0.094,-0.048 0.047,0 0.071,0.024 0.095,0.048 0.014,0.014 0.029,0.029 0.049,0.029l0.001 0c0.02,0 0.035,-0.015 0.049,-0.029 0.024,-0.024 0.048,-0.048 0.095,-0.048 0.046,0 0.07,0.024 0.094,0.048 0.014,0.014 0.029,0.029 0.049,0.029l0.001 0c0.02,0 0.035,-0.015 0.05,-0.029 0.024,-0.024 0.047,-0.048 0.094,-0.048 0.046,0 0.07,0.024 0.094,0.048 0.014,0.014 0.029,0.029 0.05,0.029l0 0c0.012,0 0.023,-0.007 0.032,-0.017 0.01,-0.012 0.016,-0.028 0.016,-0.047 0,-0.019 -0.006,-0.036 -0.016,-0.047 -0.009,-0.01 -0.02,-0.017 -0.032,-0.017l-1.153 0c-0.012,0 -0.023,0.007 -0.032,0.017 -0.01,0.011 -0.016,0.028 -0.016,0.047 0,0.019 0.006,0.035 0.016,0.047 0.009,0.01 0.02,0.017 0.032,0.017l0 0c0.021,0 0.036,-0.015 0.05,-0.029 0.024,-0.024 0.048,-0.048 0.094,-0.048 0.047,0 0.07,0.024 0.094,0.048 0.015,0.014 0.03,0.029 0.05,0.029l0.001 0c0.02,0 0.035,-0.015 0.049,-0.029zm-0.338 0.159l1.153 0c0.016,0 0.028,-0.006 0.036,-0.015 0.003,-0.004 0.006,-0.009 0.008,-0.015 0.002,-0.006 0.003,-0.012 0.003,-0.018 0,-0.008 -0.002,-0.016 -0.005,-0.023 -0.013,0.006 -0.027,0.009 -0.042,0.009l0 0c-0.049,0 -0.074,-0.025 -0.098,-0.049 -0.014,-0.014 -0.028,-0.028 -0.046,-0.028 -0.019,0 -0.032,0.014 -0.046,0.028 -0.025,0.024 -0.049,0.049 -0.098,0.049 -0.049,0 -0.074,-0.025 -0.099,-0.049 -0.013,-0.014 -0.027,-0.028 -0.045,-0.028 -0.019,0 -0.032,0.014 -0.046,0.028 -0.025,0.024 -0.05,0.049 -0.099,0.049 -0.048,0 -0.073,-0.025 -0.098,-0.049 -0.014,-0.014 -0.027,-0.028 -0.046,-0.028 -0.018,0 -0.032,0.014 -0.046,0.028 -0.024,0.024 -0.049,0.049 -0.098,0.049 -0.049,0 -0.073,-0.025 -0.098,-0.049 -0.014,-0.014 -0.027,-0.028 -0.046,-0.028 -0.018,0 -0.032,0.014 -0.046,0.028 -0.024,0.024 -0.049,0.049 -0.098,0.049l0 0c-0.015,0 -0.029,-0.003 -0.042,-0.009 -0.003,0.006 -0.005,0.012 -0.005,0.019 0,0.009 0.001,0.017 0.004,0.025 0.003,0.007 0.007,0.013 0.012,0.017 0.008,0.006 0.018,0.01 0.031,0.01zm-0.007 0.1l0 0.1c0,0.035 0.015,0.068 0.038,0.091 0.024,0.024 0.056,0.038 0.092,0.038l0.907 0c0.035,0 0.067,-0.014 0.09,-0.036l0.002 -0.002c0.023,-0.023 0.038,-0.056 0.038,-0.091l0 -0.1c0,-0.009 -0.004,-0.017 -0.009,-0.022 -0.006,-0.006 -0.014,-0.01 -0.023,-0.01l-1.103 0c-0.009,0 -0.017,0.004 -0.023,0.009l0 0.001c-0.005,0.005 -0.009,0.013 -0.009,0.022z"/></g></svg>