<svg xmlns="http://www.w3.org/2000/svg" xmlns:xlink="http://www.w3.org/1999/xlink" version="1.1" x="0px" y="0px" viewBox="0 0 100 125" enable-background="new 0 0 100 100" xml:space="preserve"><path d="M60.898,54.628L45.36,39.09L21.302,63.15l15.537,15.536L60.898,54.628z M28.749,67.266c-0.521,0-1.043-0.197-1.442-0.598  c-0.795-0.795-0.795-2.086,0-2.881l16.218-16.219c0.794-0.796,2.085-0.796,2.881,0s0.796,2.086,0,2.882L30.19,66.668  C29.792,67.068,29.271,67.266,28.749,67.266z M34.762,73.275c-0.522,0-1.043-0.198-1.442-0.596c-0.795-0.796-0.795-2.087,0-2.882  l10.582-10.583c0.797-0.795,2.087-0.795,2.882,0c0.795,0.795,0.795,2.086,0,2.882L36.2,72.68  C35.804,73.077,35.283,73.275,34.762,73.275z M3.337,62.844c-0.381,0.383-0.595,0.9-0.595,1.441c0,0.54,0.214,1.059,0.595,1.441  l3.837,3.836c0.796,0.794,2.085,0.794,2.881,0c0.846-0.845,2.321-0.845,3.165,0c0.873,0.872,0.873,2.293,0,3.166  c-0.795,0.795-0.795,2.086,0,2.881l2.556,2.554c0.794,0.796,2.085,0.796,2.879,0.002c0.846-0.849,2.321-0.849,3.167,0  c0.873,0.872,0.873,2.291,0,3.165c-0.796,0.794-0.796,2.084,0,2.88l2.553,2.554c0.796,0.796,2.085,0.796,2.879,0.002  c0.847-0.845,2.322-0.847,3.167,0.001c0.423,0.421,0.656,0.984,0.656,1.58c0,0.599-0.233,1.161-0.656,1.583  c-0.382,0.383-0.596,0.901-0.596,1.441c0,0.539,0.214,1.059,0.596,1.441l3.838,3.837c0.398,0.396,0.919,0.597,1.441,0.597  c0.521,0,1.042-0.2,1.442-0.597l41.817-41.817L45.156,21.025L3.337,62.844z M46.803,34.766l18.417,18.417  c0.795,0.797,0.795,2.086,0,2.88l-26.94,26.94c-0.398,0.399-0.919,0.596-1.443,0.596c-0.521,0-1.042-0.196-1.44-0.596L16.979,64.589  c-0.381-0.383-0.596-0.9-0.596-1.44c0-0.542,0.215-1.06,0.596-1.442l26.941-26.94C44.717,33.97,46.006,33.97,46.803,34.766z   M96.663,34.251l-3.836-3.837c-0.794-0.796-2.087-0.794-2.882,0c-0.847,0.846-2.321,0.846-3.166-0.001  c-0.422-0.422-0.655-0.984-0.655-1.581c0-0.597,0.233-1.159,0.655-1.581c0.381-0.383,0.596-0.901,0.596-1.442  c0-0.54-0.215-1.058-0.596-1.441l-2.557-2.555c-0.383-0.383-0.9-0.597-1.441-0.597l0,0c-0.541,0-1.059,0.214-1.441,0.597  c-0.843,0.843-2.317,0.844-3.163-0.002c-0.873-0.873-0.873-2.292,0-3.165c0.383-0.383,0.598-0.901,0.598-1.441  c0-0.54-0.215-1.059-0.598-1.441l-2.554-2.554c-0.796-0.795-2.086-0.795-2.881,0c-0.847,0.844-2.321,0.844-3.166,0  c-0.873-0.874-0.873-2.294,0-3.167c0.382-0.383,0.597-0.901,0.597-1.442c0-0.54-0.215-1.059-0.597-1.44l-3.838-3.837  c-0.764-0.765-2.116-0.765-2.882,0L48.663,17.518l33.808,33.809l14.192-14.192C97.457,36.338,97.457,35.049,96.663,34.251z"/><text x="0" y="115" fill="#000000" font-size="5px" font-weight="bold" font-family="'Helvetica Neue', Helvetica, Arial-Unicode, Arial, Sans-serif">Created by Thengakola</text><text x="0" y="120" fill="#000000" font-size="5px" font-weight="bold" font-family="'Helvetica Neue', Helvetica, Arial-Unicode, Arial, Sans-serif">from the Noun Project</text></svg>