<?xml version="1.0" encoding="UTF-8" standalone="no"?>
<!-- Created with Inkscape (http://www.inkscape.org/) -->

<svg
   xmlns:dc="http://purl.org/dc/elements/1.1/"
   xmlns:cc="http://creativecommons.org/ns#"
   xmlns:rdf="http://www.w3.org/1999/02/22-rdf-syntax-ns#"
   xmlns:svg="http://www.w3.org/2000/svg"
   xmlns="http://www.w3.org/2000/svg"
   xmlns:sodipodi="http://sodipodi.sourceforge.net/DTD/sodipodi-0.dtd"
   xmlns:inkscape="http://www.inkscape.org/namespaces/inkscape"
   width="25.110134mm"
   height="9.8954163mm"
   viewBox="0 0 25.110134 9.8954163"
   version="1.1"
   id="svg47"
   inkscape:version="0.92.4 (5da689c313, 2019-01-14)"
   sodipodi:docname="pollution3.svg">
  <defs
     id="defs41" />
  <sodipodi:namedview
     id="base"
     pagecolor="#ffffff"
     bordercolor="#666666"
     borderopacity="1.0"
     inkscape:pageopacity="0.0"
     inkscape:pageshadow="2"
     inkscape:zoom="3.959798"
     inkscape:cx="81.808849"
     inkscape:cy="15.469058"
     inkscape:document-units="mm"
     inkscape:current-layer="layer1"
     showgrid="false"
     units="mm"
     width="26mm"
     fit-margin-top="0"
     fit-margin-left="0"
     fit-margin-right="0"
     fit-margin-bottom="0"
     inkscape:window-width="1366"
     inkscape:window-height="705"
     inkscape:window-x="-8"
     inkscape:window-y="-8"
     inkscape:window-maximized="1" />
  <metadata
     id="metadata44">
    <rdf:RDF>
      <cc:Work
         rdf:about="">
        <dc:format>image/svg+xml</dc:format>
        <dc:type
           rdf:resource="http://purl.org/dc/dcmitype/StillImage" />
        <dc:title></dc:title>
      </cc:Work>
    </rdf:RDF>
  </metadata>
  <g
     inkscape:label="Layer 1"
     inkscape:groupmode="layer"
     id="layer1"
     transform="translate(-56.2366,-43.343958)">
    <g
       transform="matrix(0.26458333,0,0,0.26458333,55.6016,35.0625)"
       id="svg_8">
      <path
         inkscape:connector-curvature="0"
         style="fill:#7f7f7f"
         d="M 97,49.2 C 96.9,47.4 95.5,46 93.8,45.8 L 83.2,44.6 75,34.3 c -1.5,-1.9 -3.7,-3 -6.1,-3 H 46.7 c -2.4,0 -4.5,1.5 -5.4,3.7 l -4.2,11.1 c -0.4,1.1 -0.6,2.2 -0.6,3.4 v 7.8 c 0,2 1.6,3.7 3.7,3.7 H 42 c 0.4,4.3 3.9,7.7 8.3,7.7 4.4,0 8,-3.4 8.3,-7.7 h 16.7 c 0.4,4.3 3.9,7.7 8.3,7.7 4.4,0 8,-3.4 8.3,-7.7 h 1.8 c 2.1,0 3.7,-1.8 3.6,-3.9 z M 50.3,64.3 c -2.2,0 -4,-1.8 -4,-4 0,-2.2 1.8,-4 4,-4 2.2,0 4,1.8 4,4 0,2.2 -1.8,4 -4,4 z m 5,-20.2 H 44.1 l 2.6,-6.9 h 8.6 z m 5.9,0 v -6.9 h 7.7 c 0.6,0 1.2,0.3 1.5,0.7 l 4.9,6.2 z m 22.5,20.2 c -2.2,0 -4,-1.8 -4,-4 0,-2.2 1.8,-4 4,-4 2.2,0 4,1.8 4,4 0,2.2 -1.8,4 -4,4 z"
         id="svg_9" />
      <path
         inkscape:connector-curvature="0"
         style="fill:#7f7f7f"
         d="m 29.3,51.5 c -0.3,-2 -1.5,-3.6 -3.2,-4.5 0,-0.2 0,-0.4 0,-0.6 C 26,44 24.3,42 22,41.4 c 0.4,-0.7 0.6,-1.5 0.6,-2.4 0,-3 -2.4,-5.5 -5.4,-5.6 -0.5,0 -1.1,0.1 -1.6,0.2 -1,-1 -2.4,-1.7 -3.9,-1.7 -2.9,0 -5.3,2.2 -5.5,5.1 -2.2,0.7 -3.7,2.7 -3.8,5.1 0,1.8 0.9,3.4 2.2,4.5 -0.2,0.5 -0.3,1.1 -0.3,1.7 0,3 2.4,5.5 5.4,5.6 0.4,0 0.9,-0.1 1.3,-0.2 0.4,2.6 2.6,4.6 5.3,4.6 1.3,0 2.5,-0.5 3.5,-1.2 1,0.7 2.1,1.1 3.4,1.1 0.9,0 1.7,-0.2 2.4,-0.5 0.7,1 1.8,1.6 3.1,1.6 2.2,0 4,-1.7 4,-3.9 0.2,-2.1 -1.4,-3.8 -3.4,-3.9 z"
         id="svg_10" />
    </g>
  </g>
</svg>
