<svg xmlns:dc="http://purl.org/dc/elements/1.1/" xmlns:cc="http://creativecommons.org/ns#" xmlns:rdf="http://www.w3.org/1999/02/22-rdf-syntax-ns#" xmlns:svg="http://www.w3.org/2000/svg" xmlns="http://www.w3.org/2000/svg" xmlns:sodipodi="http://sodipodi.sourceforge.net/DTD/sodipodi-0.dtd" xmlns:inkscape="http://www.inkscape.org/namespaces/inkscape" version="1.1" x="0px" y="0px" viewBox="0 0 100 125"><g transform="translate(0,-952.36218)"><path style=" fill:#7f7f7f;text-indent:0;text-transform:none;direction:ltr;block-progression:tb;baseline-shift:baseline;color:#000000;enable-background:accumulate;" d="m 50,954.36351 c -6.90577,0 -13.83471,2.6474 -19.09375,7.9062 -3.58967,3.5898 -5.89085,7.9659 -7.03125,12.5626 C 13.17095,976.80011 5,986.11701 5,997.36351 c 0,12.66699 10.33305,22.99999 23,22.99999 l 47,0 c 11.02811,0 20,-8.9719 20,-20 0,-10.40809 -8.01817,-18.88109 -18.1875,-19.81249 -0.2003,-6.635 -2.66483,-13.2271 -7.71875,-18.2813 -5.25896,-5.2588 -12.18798,-7.9062 -19.09375,-7.9062 z m 0,6 c 5.37863,0 10.73011,2.0114 14.84375,6.125 4.55509,4.5553 6.55423,10.679 6.0625,16.625 a 3.0003,3.0003 0 0 0 3,3.25 l 1.09375,0 c 7.80789,0 14,6.1921 14,13.99999 0,7.8079 -6.19211,14 -14,14 l -47,0 c -9.42425,0 -17,-7.5758 -17,-16.99999 0,-8.9442 6.85841,-16.2488 15.59375,-16.9688 a 3.0003,3.0003 0 0 0 2.71875,-2.5 c 0.69268,-4.1839 2.61722,-8.1796 5.84375,-11.4062 4.11376,-4.1136 9.46512,-6.125 14.84375,-6.125 z m -24.21875,62.99999 c -0.96066,0.068 -1.85723,0.6032 -2.375,1.5 l -4,6.9375 c -0.82842,1.4349 -0.34108,3.2653 1.09375,4.0937 1.43492,0.8285 3.26532,0.3412 4.09375,-1.0937 l 4,-6.9375 c 0.82842,-1.4349 0.34117,-3.2653 -1.09375,-4.0938 -0.53806,-0.3106 -1.14236,-0.4469 -1.71875,-0.4062 z m 17,0 c -0.96066,0.068 -1.85723,0.6032 -2.375,1.5 l -4,6.9375 c -0.82842,1.4349 -0.34108,3.2653 1.09375,4.0937 1.43492,0.8285 3.26532,0.3412 4.09375,-1.0937 l 4,-6.9375 c 0.82842,-1.4349 0.34117,-3.2653 -1.09375,-4.0938 -0.53806,-0.3106 -1.14236,-0.4469 -1.71875,-0.4062 z m 17,0 c -0.96066,0.068 -1.85723,0.6032 -2.375,1.5 l -4,6.9375 c -0.82842,1.4349 -0.34108,3.2653 1.09375,4.0937 1.43492,0.8285 3.26532,0.3412 4.09375,-1.0937 l 4,-6.9375 c 0.82842,-1.4349 0.34117,-3.2653 -1.09375,-4.0938 -0.53806,-0.3106 -1.14236,-0.4469 -1.71875,-0.4062 z m 17,0 c -0.96066,0.068 -1.85723,0.6032 -2.375,1.5 l -4,6.9375 c -0.82842,1.4349 -0.34108,3.2653 1.09375,4.0937 1.43492,0.8285 3.26532,0.3412 4.09375,-1.0937 l 4,-6.9375 c 0.82842,-1.4349 0.34117,-3.2653 -1.09375,-4.0938 -0.53806,-0.3106 -1.14236,-0.4469 -1.71875,-0.4062 z m -47,14.0938 c -0.96066,0.068 -1.85724,0.5719 -2.375,1.4687 l -4,6.9375 c -0.82842,1.4349 -0.34108,3.2653 1.09375,4.0938 1.43492,0.8284 3.26532,0.3411 4.09375,-1.0938 l 4,-6.9375 c 0.82842,-1.4349 0.34117,-3.2653 -1.09375,-4.0937 -0.53806,-0.3107 -1.14236,-0.4158 -1.71875,-0.375 z m 17,0 c -0.96066,0.068 -1.85723,0.5719 -2.375,1.4687 l -4,6.9375 c -0.82842,1.4349 -0.34108,3.2653 1.09375,4.0938 1.43492,0.8284 3.26532,0.3411 4.09375,-1.0938 l 4,-6.9375 c 0.82842,-1.4349 0.34117,-3.2653 -1.09375,-4.0937 -0.53806,-0.3107 -1.14236,-0.4158 -1.71875,-0.375 z m 17,0 c -0.96066,0.068 -1.85723,0.5719 -2.375,1.4687 l -4,6.9375 c -0.82842,1.4349 -0.34108,3.2653 1.09375,4.0938 1.43492,0.8284 3.26532,0.3411 4.09375,-1.0938 l 4,-6.9375 c 0.82842,-1.4349 0.34117,-3.2653 -1.09375,-4.0937 -0.53806,-0.3107 -1.14236,-0.4158 -1.71875,-0.375 z" fill="#000000" fill-opacity="1" stroke="none" marker="none" visibility="visible" display="inline" overflow="visible"/></g></svg>